<svg xmlns="http://www.w3.org/2000/svg" viewBox="0 0 32 32" fill="none">
  <rect width="32" height="32" rx="8" fill="#00bf63"/>
  <path d="M16 6C10.477 6 6 10.477 6 16c0 1.89.52 3.66 1.43 5.17L6 26l4.97-1.4A10 10 0 1 0 16 6Zm0 18a8 8 0 0 1-4.38-1.3l-.31-.19-2.95.83.78-2.87-.2-.32A8 8 0 1 1 16 24Z" fill="white"/>
  <path d="M12.5 13c-.28-.62-.57-.63-.83-.64H11c-.2 0-.52.07-.8.37S9 13.63 9 14.37s.53 1.63.6 1.75c.07.12 1.02 1.63 2.52 2.22 1.25.49 1.5.39 1.77.37.27-.02.87-.36 1-.7.12-.35.12-.65.08-.71-.04-.06-.15-.1-.31-.17Z" fill="white"/>
</svg>
