<?xml version="1.0" encoding="UTF-8"?>
<svg version="1.1" xmlns="http://www.w3.org/2000/svg" width="1024" height="1024">
<path d="M0 0 C1.20046967 -0.00067474 2.40093933 -0.00134949 3.63778687 -0.00204468 C22.6512927 0.01489252 41.20781822 0.69769561 60.0625 3.25 C61.40162126 3.42389095 62.74081618 3.59721542 64.08007812 3.77001953 C152.24314122 15.27642706 237.12588952 50.92580573 367.1796875 166.87109375 C369.11952564 169.32205107 371.18234153 171.58832451 373.3125 173.875 C379.72848684 180.93704108 385.37174452 188.60217583 391.0625 196.25 C391.60986816 196.9831543 392.15723633 197.71630859 392.72119141 198.47167969 C449.46420638 274.770197 481.09077119 367.15978794 482.02444458 559.00639343 C470.32479439 637.82431982 438.8095896 713.48188166 391.0625 777.25 C390.39009277 778.15202148 390.39009277 778.15202148 389.70410156 779.07226562 C383.47231009 787.40333583 376.85396205 795.3740099 370.0625 803.25 C369.44761719 803.96671875 368.83273437 804.6834375 368.19921875 805.421875 C359.50553057 815.46422602 350.39871436 825.08127943 340.9909668 834.4519043 C339.36193428 836.07552229 337.73839272 837.70449603 336.11523438 839.33398438 C330.60361994 844.84936622 325.02029129 850.21352545 319.0625 855.25 C318.09828125 856.095625 317.1340625 856.94125 316.140625 857.8125 C306.49135847 866.12899491 296.31892939 873.70285684 286.0625 881.25 C285.43230957 881.71792969 284.80211914 882.18585937 284.15283203 882.66796875 C268.44819048 894.31763153 251.77947557 904.74289053 234.52685547 913.93554688 C232.79331422 914.8601938 231.06348884 915.79182443 229.33642578 916.72851562 C155.08810135 956.95209769 72.33140177 975.56910197 -135.94262695 955.36743164 C-141.29699309 953.72981985 -146.61931524 952.00102027 -151.9375 950.25 C-153.0095166 949.90211426 -154.0815332 949.55422852 -155.18603516 949.19580078 C-180.47040599 940.94884597 -208.7016508 931.07389947 -230.9375 916.25 C-236.66241058 916.63069948 -242.04844422 917.9065712 -247.58129883 919.36938477 C-248.41359449 919.58508527 -249.24589016 919.80078577 -250.10340691 920.02302265 C-252.86840497 920.74095893 -255.6314488 921.46613544 -258.39453125 922.19140625 C-260.37561034 922.70753299 -262.35679904 923.2232392 -264.33808899 923.73855591 C-269.69332948 925.13286814 -275.04685521 926.53366178 -280.40006256 927.93575668 C-284.89077608 929.11106313 -289.38249357 930.28250624 -293.87421799 931.4539423 C-327.79091871 940.29996313 -361.68446072 949.23367539 -395.57331944 958.18565273 C-417.25423245 963.91255984 -438.93676627 969.63261866 -460.64251709 975.26480103 C-463.14238832 975.9137817 -465.64194912 976.56395946 -468.14117432 977.21542358 C-471.4785785 978.08485094 -474.81717086 978.94953134 -478.15625 979.8125 C-479.6020192 980.19019279 -479.6020192 980.19019279 -481.07699585 980.57551575 C-482.38369736 980.91131905 -482.38369736 980.91131905 -483.71679688 981.25390625 C-484.46602417 981.44799072 -485.21525146 981.6420752 -485.98718262 981.84204102 C-487.9375 982.25 -487.9375 982.25 -490.9375 982.25 C-487.64282916 967.28340494 -483.51255443 952.54939035 -479.41271973 937.78799438 C-477.72145922 931.69324804 -476.03915765 925.59601603 -474.35504913 919.49929047 C-473.67084297 917.02267302 -472.98627018 914.54615707 -472.30169678 912.06964111 C-468.70521217 899.05431876 -465.13315281 886.03238135 -461.5703125 873.0078125 C-461.1640416 871.52278606 -461.1640416 871.52278606 -460.74956322 870.00775909 C-457.97862116 859.87847114 -455.20992258 849.74857214 -452.44393063 839.61793137 C-451.07139536 834.59144983 -449.69805899 829.56518751 -448.32421875 824.5390625 C-448.05508982 823.55441765 -447.78596088 822.5697728 -447.50867653 821.55529022 C-443.95093735 808.54443074 -440.35858061 795.54374469 -436.72650528 782.55344391 C-436.03063831 780.06318569 -435.336177 777.57254041 -434.64230347 775.08172607 C-434.42019636 774.28446987 -434.19808926 773.48721367 -433.96925163 772.66579819 C-433.53118552 771.09319685 -433.09318217 769.52057803 -432.65524483 767.94794083 C-431.40637059 763.466905 -430.14762202 758.98879622 -428.8812151 754.51268578 C-428.29971094 752.45110262 -427.72315904 750.38821339 -427.14884949 748.32461548 C-426.46031879 745.85114418 -425.76372404 743.37989683 -425.05732727 740.91146851 C-424.61093147 739.29409286 -424.61093147 739.29409286 -424.15551758 737.64404297 C-423.89418533 736.7159079 -423.63285309 735.78777283 -423.36360168 734.83151245 C-422.66576319 730.60369825 -423.64976142 727.3301133 -425.80078125 723.703125 C-426.18669434 723.03700195 -426.57260742 722.37087891 -426.97021484 721.68457031 C-427.39254395 720.96366211 -427.81487305 720.24275391 -428.25 719.5 C-459.36793494 664.68987233 -477.27729549 602.74665282 -484.25 540.3125 C-484.33158356 539.58362579 -484.41316711 538.85475159 -484.4972229 538.10379028 C-493.95076579 452.1164533 -479.97021842 364.51915139 -420.9375 241.25 C-420.46892578 240.4549707 -420.00035156 239.65994141 -419.51757812 238.84082031 C-406.71384565 217.1471204 -392.12670163 196.54820056 -375.9375 177.25 C-375.10992187 176.24839844 -374.28234375 175.24679688 -373.4296875 174.21484375 C-362.80763789 161.42278252 -351.29450685 149.51975635 -339.5625 137.75 C-338.63526123 136.81808838 -337.70802246 135.88617676 -336.75268555 134.92602539 C-331.64040611 129.8257045 -326.43011231 124.93615139 -320.9375 120.25 C-319.8890535 119.32469426 -318.84210119 118.39769186 -317.796875 117.46875 C-307.94424372 108.81296079 -297.5067793 101.00377476 -286.9375 93.25 C-286.29280762 92.77288574 -285.64811523 92.29577148 -284.98388672 91.80419922 C-269.86818935 80.62701091 -253.77827238 70.8887464 -237.41943359 61.65185547 C-235.74274952 60.70482419 -234.06865018 59.75320426 -232.39697266 58.79736328 C-209.90687987 45.96823945 -186.31522863 35.90529878 -161.9375 27.25 C-161.1021875 26.94787598 -160.266875 26.64575195 -159.40625 26.33447266 C-108.38032876 7.9663676 -54.06734923 0.02736883 0 0 Z M-102.9375 96.25 C-103.94071289 96.52070312 -104.94392578 96.79140625 -105.97753906 97.0703125 C-164.99006483 113.18346148 -220.37916131 142.26014636 -265.9375 183.25 C-266.82566406 184.03890625 -267.71382812 184.8278125 -268.62890625 185.640625 C-271.07988156 187.82801228 -273.51044843 190.03611012 -275.9375 192.25 C-276.45586426 192.71792969 -276.97422852 193.18585938 -277.50830078 193.66796875 C-283.44532199 199.02799486 -289.26577014 204.32033291 -294.40625 210.46875 C-295.95843021 212.27434739 -297.59847678 213.9108049 -299.3125 215.5625 C-303.44442047 219.63945036 -307.03316145 224.11530395 -310.65136719 228.64746094 C-312.00917009 230.33930191 -313.38239406 232.01776824 -314.7578125 233.6953125 C-322.27322063 242.90670848 -329.25119456 252.42169288 -335.9375 262.25 C-336.4001123 262.92756348 -336.86272461 263.60512695 -337.33935547 264.30322266 C-345.38081013 276.16415418 -352.28583047 288.56654554 -358.9375 301.25 C-359.41219727 302.14879883 -359.88689453 303.04759766 -360.37597656 303.97363281 C-396.68809465 373.10969732 -410.45819161 452.80195301 -401.9375 530.25 C-401.81391113 531.38695312 -401.69032227 532.52390625 -401.56298828 533.6953125 C-394.78974769 593.46402948 -374.91805614 655.74058721 -340.09375 705.35546875 C-339.44768799 706.29217407 -339.44768799 706.29217407 -338.78857422 707.24780273 C-337.67018738 708.84610268 -336.51278952 710.41692368 -335.3515625 711.984375 C-331.21634055 721.53422458 -337.3814184 734.93199728 -340.046875 744.4453125 C-340.57193579 746.34265435 -341.09623702 748.24020653 -341.61982727 750.13795471 C-342.72799744 754.14880757 -343.84108044 758.15824907 -344.95828247 762.16659546 C-346.69026914 768.38078316 -348.41157705 774.59789345 -350.13061523 780.81567383 C-351.83092505 786.96429117 -353.53159738 793.11280393 -355.23606873 799.26026917 C-359.54538379 814.80478291 -363.79979277 830.36312653 -368 845.9375 C-368.52764531 847.89144527 -369.05531355 849.84538435 -369.58300781 851.79931641 C-370.70312947 855.94901915 -371.82121754 860.09926294 -372.9375 864.25 C-369.92648691 865.19396246 -368.00588191 865.26183501 -364.96290588 864.46394348 C-363.79008308 864.16386635 -363.79008308 864.16386635 -362.59356689 863.85772705 C-361.74357117 863.62986511 -360.89357544 863.40200317 -360.01782227 863.16723633 C-358.66233528 862.81597939 -358.66233528 862.81597939 -357.27946472 862.45762634 C-354.26848373 861.67488012 -351.26128041 860.87851322 -348.25390625 860.08203125 C-346.12561103 859.52562228 -343.99710233 858.97002928 -341.86839294 858.41520691 C-336.21988033 856.94048667 -330.57449198 855.45412507 -324.92962646 853.96551514 C-319.36970961 852.50159796 -313.80675619 851.04932441 -308.24414062 849.59570312 C-290.7452575 845.01750772 -273.25119775 840.42337186 -255.78857422 835.70849609 C-253.69076196 835.14348531 -251.5929381 834.57851759 -249.49510193 834.01359558 C-245.56248516 832.95433764 -241.63226737 831.88673026 -237.70326233 830.81416321 C-235.94279512 830.33895964 -234.18225551 829.86402419 -232.42163086 829.3894043 C-231.23439202 829.06150815 -231.23439202 829.06150815 -230.02316856 828.72698784 C-221.01049361 826.31439708 -221.01049361 826.31439708 -216.71533203 828.25292969 C-215.59167236 828.95530762 -215.59167236 828.95530762 -214.4453125 829.671875 C-213.58728027 830.1968457 -212.72924805 830.72181641 -211.84521484 831.26269531 C-210.92691895 831.83600586 -210.00862305 832.40931641 -209.0625 833 C-154.97796377 865.82060764 -95.74614478 883.97538336 -32.9375 890.25 C-32.08333496 890.33620605 -31.22916992 890.42241211 -30.34912109 890.51123047 C-25.54735226 890.96599713 -20.75721941 891.15957728 -15.9375 891.25 C-14.33527588 891.28867188 -14.33527588 891.28867188 -12.70068359 891.328125 C75.43086111 893.2105235 162.32034456 868.07506979 234.0625 816.25 C234.7229834 815.77353027 235.3834668 815.29706055 236.06396484 814.80615234 C248.64195836 805.67575045 260.35328342 795.69721718 271.84765625 785.24609375 C273.82881755 783.4606027 275.84342996 781.72746808 277.875 780 C286.56318739 772.42432441 294.62467 764.04590512 302.0625 755.25 C302.90683594 754.29480469 303.75117187 753.33960938 304.62109375 752.35546875 C318.93319814 736.1024511 331.36924866 718.45348619 343.0625 700.25 C343.47661133 699.60853027 343.89072266 698.96706055 344.31738281 698.30615234 C384.62493811 635.29724231 406.76925421 556.05713271 404.0625 481.25 C404.02141113 480.04762695 403.98032227 478.84525391 403.93798828 477.60644531 C402.45109653 436.73288663 396.0378803 397.12861203 383.0625 358.25 C382.53849609 356.67605469 382.53849609 356.67605469 382.00390625 355.0703125 C367.26649989 311.34394197 344.64696116 271.35917859 316.0625 235.25 C315.32515625 234.31800781 314.5878125 233.38601562 313.828125 232.42578125 C308.64872166 225.98826044 303.15895995 219.87716221 297.53027344 213.83544922 C296.00065763 212.18319954 294.48726578 210.51720623 292.9765625 208.84765625 C288.30282466 203.69706636 283.65527421 198.64822294 278.30859375 194.1796875 C275.83082941 192.05096475 273.45726419 189.8311703 271.078125 187.59350586 C244.25932317 162.3828293 213.32385577 142.06098428 180.53466797 125.50585938 C178.47035168 124.45718833 176.42120889 123.38749833 174.37890625 122.296875 C122.33107782 95.03069316 60.71654362 82.97897387 2.3125 83.0625 C1.03243073 83.06390488 1.03243073 83.06390488 -0.27349854 83.06533813 C-35.06807579 83.14756322 -69.32166289 87.11730967 -102.9375 96.25 Z " fill="#00BE63" transform="translate(513.9375,20.75)"/>
<path d="M0 0 C0.88340057 0.00060425 1.76680115 0.0012085 2.67697144 0.00183105 C15.67042733 0.02593629 28.50235563 0.25673451 41.375 2.1875 C42.69830322 2.38085938 42.69830322 2.38085938 44.04833984 2.578125 C108.20476673 12.22000234 169.76405212 38.80892614 218.375 82.1875 C218.88659668 82.6427002 219.39819336 83.09790039 219.92529297 83.56689453 C232.08306063 94.44728406 244.25975085 105.72857003 254.33203125 118.59765625 C255.69930215 120.33092701 257.1147996 122.02716598 258.57421875 123.68359375 C275.25562025 142.68109066 288.53994454 165.53248148 299.45898438 188.28613281 C300.32841835 190.0908108 301.21833996 191.8855764 302.109375 193.6796875 C340.4948235 272.739625 342.01269534 365.77520749 313.60546875 448.0625 C299.60264003 487.33279382 277.98884715 525.0189647 249.640625 555.7109375 C247.76353839 557.76278734 245.94125363 559.84410954 244.125 561.94921875 C240.28919482 566.34266102 236.25049932 570.50418715 232.125 574.625 C231.37774658 575.37144775 230.63049316 576.11789551 229.8605957 576.88696289 C225.08083752 581.61412259 220.23723243 586.03536529 214.9375 590.17578125 C212.22924224 592.30192873 209.6590088 594.55161947 207.0625 596.8125 C148.51039916 645.59329294 71.10187154 669.49109384 -4.375 669.375 C-5.56636566 669.37359512 -5.56636566 669.37359512 -6.78179932 669.37216187 C-18.52657958 669.34221499 -30.00443459 669.00532742 -41.625 667.1875 C-42.71377441 667.02620605 -43.80254883 666.86491211 -44.92431641 666.69873047 C-111.40252804 656.76826473 -171.74788173 630.41630158 -222.625 586.1875 C-223.79869141 585.18203125 -223.79869141 585.18203125 -224.99609375 584.15625 C-229.05284678 580.65931355 -232.88468579 577.02132207 -236.625 573.1875 C-237.55999574 577.25877874 -237.8738973 581.20828803 -238.08984375 585.37695312 C-238.12739777 586.08166245 -238.16495178 586.78637177 -238.2036438 587.51243591 C-238.28435964 589.03574804 -238.36340347 590.55914951 -238.44094849 592.08262634 C-238.56387531 594.49574817 -238.69137935 596.90859016 -238.82006836 599.32141113 C-239.09243391 604.4432316 -239.35912854 609.56533885 -239.625 614.6875 C-239.93317707 620.62470224 -240.24369334 626.56176245 -240.56033325 632.4985199 C-240.68568878 634.87195692 -240.80667028 637.2455911 -240.92749023 639.6192627 C-241.00483049 641.07886883 -241.08237497 642.53846417 -241.16015625 643.99804688 C-241.225979 645.26869995 -241.29180176 646.53935303 -241.35961914 647.84851074 C-241.58741747 650.71464122 -241.98247494 653.3897347 -242.625 656.1875 C-256.92767394 656.43391311 -271.14835473 655.76429106 -285.42651367 654.96069336 C-289.23905886 654.74711163 -293.05207188 654.54402663 -296.86523438 654.34179688 C-299.28649227 654.20895044 -301.70771765 654.07550977 -304.12890625 653.94140625 C-305.27033585 653.8809462 -306.41176544 653.82048615 -307.58778381 653.75819397 C-309.15223488 653.66821388 -309.15223488 653.66821388 -310.74829102 653.57641602 C-311.66884781 653.52534195 -312.5894046 653.47426788 -313.53785706 653.42164612 C-315.625 653.1875 -315.625 653.1875 -316.625 652.1875 C-316.72293885 649.67420739 -316.75554155 647.19365052 -316.7371521 644.68037415 C-316.73225598 643.53246445 -316.73225598 643.53246445 -316.72726095 642.36136466 C-316.66433304 634.32790622 -316.27520948 626.32132861 -315.83056641 618.30151367 C-315.74477192 616.69290099 -315.65936003 615.08426787 -315.57429504 613.47561646 C-315.3450412 609.16372923 -315.11003093 604.85217514 -314.8735013 600.5406816 C-314.67550475 596.92242086 -314.48030542 593.30401122 -314.28504407 589.68560201 C-313.82414967 581.14636841 -313.35843106 572.60740743 -312.88964844 564.06860352 C-312.40790418 555.29210829 -311.93449734 546.51519098 -311.46513045 537.73802584 C-311.05977943 530.16361748 -310.6491914 522.58950511 -310.23447359 515.01560384 C-309.98773886 510.50854942 -309.74293578 506.00141235 -309.50322342 501.4939785 C-309.27777688 497.25898795 -309.04574411 493.0244068 -308.80882835 488.79004288 C-308.72348041 487.24552864 -308.64037112 485.70088864 -308.55978966 484.15611839 C-306.91402149 452.71234042 -306.91402149 452.71234042 -295.4375 441.75 C-284.15608679 432.61833332 -273.25648992 431.96005399 -259.35180664 432.51171875 C-258.03460412 432.56011398 -256.7174016 432.60850922 -255.36028385 432.65837097 C-240.34112117 433.2247498 -225.33417016 434.04132876 -210.32771564 434.87139511 C-206.32887008 435.09195878 -202.32983472 435.30903336 -198.33082581 435.52661133 C-191.64401564 435.89091975 -184.95733996 436.25761413 -178.27075195 436.62597656 C-170.57931113 437.04967966 -162.88769724 437.47011668 -155.19597763 437.88872623 C-146.92004624 438.33915537 -138.6442375 438.79180688 -130.36846662 439.24517441 C-128.01443803 439.37399613 -125.6603883 439.50242522 -123.30633354 439.63076782 C-119.60001579 439.8329558 -115.89378408 440.03665866 -112.18761063 440.24147415 C-110.20446584 440.35075353 -108.22124537 440.45865671 -106.23802185 440.5664978 C-98.35775601 441.00391912 -90.49152237 441.54886663 -82.625 442.1875 C-82.99747125 449.75153777 -83.37113961 457.31551521 -83.74664211 464.87940311 C-83.92104283 468.39328339 -84.09498944 471.90718481 -84.26782227 475.42114258 C-84.46747986 479.48005225 -84.66924921 483.53885474 -84.87109375 487.59765625 C-84.9315538 488.83266373 -84.99201385 490.0676712 -85.05430603 491.34010315 C-85.48533298 499.96335575 -86.02687081 508.57446821 -86.625 517.1875 C-97.56951462 517.40239893 -108.45747656 516.74149639 -119.37890625 516.12890625 C-121.37238143 516.01903138 -123.3658661 515.9093287 -125.35935974 515.79978943 C-129.51224134 515.57079901 -133.6649769 515.33935139 -137.81762695 515.10620117 C-143.14371607 514.8074253 -148.47015462 514.51547173 -153.79672337 514.22538853 C-157.9017322 514.00098472 -162.00651901 513.77271358 -166.11124992 513.54328728 C-168.07641543 513.43397464 -170.04165259 513.32594224 -172.00695992 513.21920967 C-174.74259153 513.07012292 -177.4778759 512.91576603 -180.21313477 512.76000977 C-181.02506287 512.71685135 -181.83699097 512.67369293 -182.67352295 512.62922668 C-185.85911359 512.44322001 -188.5822751 512.20174163 -191.625 511.1875 C-181.80081125 523.49640575 -169.4248942 534.09146066 -156.625 543.1875 C-155.90699219 543.70248047 -155.18898438 544.21746094 -154.44921875 544.74804688 C-111.6805712 575.14002942 -61.20067824 592.41855796 -8.625 593.1875 C-7.79701904 593.19998779 -6.96903809 593.21247559 -6.1159668 593.2253418 C27.75436576 593.4854826 62.13756293 587.55296321 93.375 574.1875 C94.02001465 573.9188916 94.6650293 573.6502832 95.32958984 573.37353516 C112.18719494 566.33302881 128.513672 557.85771967 143.375 547.1875 C144.82712891 546.14529297 144.82712891 546.14529297 146.30859375 545.08203125 C153.96109091 539.45958535 161.22564431 533.42903623 168.375 527.1875 C168.8798291 526.74728516 169.3846582 526.30707031 169.90478516 525.85351562 C175.16027058 521.24398465 180.15589506 516.57622078 184.65234375 511.21875 C186.55566339 508.97447288 188.55663188 506.84048903 190.5625 504.6875 C234.28826182 455.99627031 256.09512464 388.81386675 252.9831543 323.85302734 C251.05140124 291.4117126 244.24903473 259.69108734 230.375 230.1875 C229.88797607 229.15109375 229.88797607 229.15109375 229.39111328 228.09375 C227.15916741 223.40099772 224.80798494 218.77892625 222.375 214.1875 C222.02856445 213.53185059 221.68212891 212.87620117 221.32519531 212.20068359 C211.44137448 193.66738917 199.22739968 177.34501887 184.94140625 161.9765625 C182.80001785 159.64939155 180.73157371 157.28691385 178.6875 154.875 C175.23035164 150.90538024 171.39776354 147.57012529 167.375 144.1875 C165.98861328 142.96933594 165.98861328 142.96933594 164.57421875 141.7265625 C121.42175262 104.01798824 64.71262023 81.38510914 7.375 79.1875 C6.71935059 79.16026855 6.06370117 79.13303711 5.38818359 79.10498047 C-17.59333362 78.2780827 -41.28665209 80.75829433 -63.625 86.1875 C-64.46160156 86.38150391 -65.29820312 86.57550781 -66.16015625 86.77539062 C-107.00945668 96.36371375 -144.39974917 116.90939277 -175.2890625 145.0703125 C-177.39418748 146.97830203 -179.53113634 148.83797069 -181.6875 150.6875 C-189.8594145 157.84202756 -196.90503397 165.66794985 -203.625 174.1875 C-204.40617188 175.15171875 -205.18734375 176.1159375 -205.9921875 177.109375 C-213.31028311 186.32129088 -219.55024661 196.12188255 -225.625 206.1875 C-226.06344238 206.90502441 -226.50188477 207.62254883 -226.95361328 208.36181641 C-238.67110851 227.70763097 -247.05863391 249.29426765 -252.625 271.1875 C-252.84881348 272.06229004 -253.07262695 272.93708008 -253.30322266 273.83837891 C-257.01601919 288.70808932 -258.92827322 303.59703004 -260.31542969 318.84692383 C-260.625 321.1875 -260.625 321.1875 -261.625 323.1875 C-298.255 321.2075 -298.255 321.2075 -335.625 319.1875 C-334.44557675 294.41961176 -334.44557675 294.41961176 -332.5625 282.8125 C-332.45618256 282.147948 -332.34986511 281.483396 -332.24032593 280.79870605 C-322.86075567 222.80535328 -298.2537278 169.02358609 -261.625 123.1875 C-261.17253906 122.6193457 -260.72007812 122.05119141 -260.25390625 121.46582031 C-252.76668484 112.19163458 -244.39500483 103.75506772 -236 95.3125 C-235.47097076 94.7781131 -234.94194153 94.2437262 -234.3968811 93.69314575 C-227.47938515 86.72258363 -220.3771682 80.24038363 -212.625 74.1875 C-211.82368652 73.55779297 -211.02237305 72.92808594 -210.19677734 72.27929688 C-149.72472017 25.24686892 -76.60745409 -0.09716392 0 0 Z " fill="#FE904C" transform="translate(521.625,162.8125)"/>
</svg>
